{
  "accessors": [
    {
      "bufferView": 0,
      "byteOffset": 0,
      "componentType": 5126,
      "count": 5459,
      "max": [
        7.582557,
        4.052066,
        0.409531
      ],
      "min": [
        -7.857431,
        -0.0043,
        -0.344237
      ],
      "type": "VEC3"
    },
    {
      "bufferView": 0,
      "byteOffset": 65508,
      "componentType": 5126,
      "count": 5459,
      "max": [
        1,
        1,
        1
      ],
      "min": [
        -1,
        -0.9999,
        -1
      ],
      "type": "VEC3"
    },
    {
      "bufferView": 1,
      "byteOffset": 0,
      "componentType": 5123,
      "count": 15918,
      "max": [
        5458
      ],
      "min": [
        0
      ],
      "type": "SCALAR"
    },
    {
      "bufferView": 0,
      "byteOffset": 131016,
      "componentType": 5126,
      "count": 482,
      "max": [
        2.062149,
        4.075392,
        0.433659
      ],
      "min": [
        1.227659,
        3.240902,
        -0.40083
      ],
      "type": "VEC3"
    },
    {
      "bufferView": 0,
      "byteOffset": 136800,
      "componentType": 5126,
      "count": 482,
      "max": [
        1,
        1,
        1
      ],
      "min": [
        -1,
        -1,
        -1
      ],
      "type": "VEC3"
    },
    {
      "bufferView": 1,
      "byteOffset": 31836,
      "componentType": 5123,
      "count": 2880,
      "max": [
        481
      ],
      "min": [
        0
      ],
      "type": "SCALAR"
    },
    {
      "bufferView": 0,
      "byteOffset": 142584,
      "componentType": 5126,
      "count": 482,
      "max": [
        -0.069571,
        0.818088,
        0.433659
      ],
      "min": [
        -0.90406,
        -0.016402,
        -0.40083
      ],
      "type": "VEC3"
    },
    {
      "bufferView": 0,
      "byteOffset": 148368,
      "componentType": 5126,
      "count": 482,
      "max": [
        1,
        1,
        1
      ],
      "min": [
        -1,
        -1,
        -1
      ],
      "type": "VEC3"
    },
    {
      "bufferView": 1,
      "byteOffset": 37596,
      "componentType": 5123,
      "count": 2880,
      "max": [
        481
      ],
      "min": [
        0
      ],
      "type": "SCALAR"
    }
  ],
  "asset": {
    "generator": "qtek fbx2gltf",
    "version": "2.0"
  },
  "bufferViews": [
    {
      "buffer": 0,
      "byteLength": 154152,
      "byteOffset": 0,
      "target": 34962
    },
    {
      "buffer": 0,
      "byteLength": 43356,
      "byteOffset": 154152,
      "target": 34963
    }
  ],
  "buffers": [
    {
      "byteLength": 197508,
      "uri": "logo.bin"
    }
  ],
  "materials": [
    {
      "name": "SVGMat.003",
      "emissiveFactor": [
        0,
        0,
        0
      ],
      "pbrMetallicRoughness": {
        "baseColorFactor": [
          1,
          1,
          1,
          1
        ],
        "metallicFactor": 0,
        "roughnessFactor": 0.23
      }
    },
    {
      "name": "SVGMat.001",
      "emissiveFactor": [
        1.0196078431372548,
        5.176470588235294,
        6.980392156862745
      ],
      "pbrMetallicRoughness": {
        "baseColorFactor": [
          0,
          0,
          0,
          1
        ],
        "metallicFactor": 0,
        "roughnessFactor": 0.49
      }
    },
    {
      "name": "SVGMat.002",
      "emissiveFactor": [
        7.450980392156863,
        0.8627450980392157,
        2.9411764705882355
      ],
      "pbrMetallicRoughness": {
        "baseColorFactor": [
          0,
          0,
          0,
          1
        ],
        "metallicFactor": 0,
        "roughnessFactor": 0.49
      }
    }
  ],
  "meshes": [
    {
      "name": "default_Material0",
      "primitives": [
        {
          "attributes": {
            "NORMAL": 1,
            "POSITION": 0
          },
          "indices": 2,
          "material": 0
        },
        {
          "attributes": {
            "NORMAL": 4,
            "POSITION": 3
          },
          "indices": 5,
          "material": 1
        },
        {
          "attributes": {
            "NORMAL": 7,
            "POSITION": 6
          },
          "indices": 8,
          "material": 2
        }
      ]
    }
  ],
  "nodes": [
    {
      "children": [
        1
      ],
      "matrix": [
        1,
        0,
        0,
        0,
        0,
        1,
        0,
        0,
        0,
        0,
        1,
        0,
        0,
        0,
        0,
        1
      ],
      "name": "logo_root"
    },
    {
      "matrix": [
        1,
        0,
        0,
        0,
        0,
        1,
        0,
        0,
        0,
        0,
        1,
        0,
        0,
        0,
        0,
        1
      ],
      "mesh": 0,
      "name": "default"
    }
  ],
  "scene": 0,
  "scenes": [
    {
      "nodes": [
        0
      ]
    }
  ],
  "extras": {
    "qtekModelViewerConfig": {
      "preZ": true,
      "materials": [
        {
          "name": "SVGMat.003",
          "color": "#ffffff",
          "emission": "#000000",
          "alpha": 1,
          "alphaCutoff": 0,
          "emissionIntensity": 1,
          "uvRepeat": [
            1,
            1
          ],
          "parallaxOcclusionScale": 0.02,
          "diffuseMap": "",
          "normalMap": "",
          "parallaxOcclusionMap": "",
          "emissiveMap": "",
          "metalness": 0,
          "roughness": 0.23,
          "metalnessMap": "",
          "roughnessMap": "",
          "type": "pbrMetallicRoughness",
          "targetMeshes": [
            "default_Material0"
          ]
        },
        {
          "name": "SVGMat.001",
          "color": "#000000",
          "emission": "#1a84b2",
          "alpha": 1,
          "alphaCutoff": 0,
          "emissionIntensity": 10,
          "uvRepeat": [
            1,
            1
          ],
          "parallaxOcclusionScale": 0.02,
          "diffuseMap": "",
          "normalMap": "",
          "parallaxOcclusionMap": "",
          "emissiveMap": "",
          "metalness": 0,
          "roughness": 0.49,
          "metalnessMap": "",
          "roughnessMap": "",
          "type": "pbrMetallicRoughness",
          "targetMeshes": [
            "default_Material0$1"
          ]
        },
        {
          "name": "SVGMat.002",
          "color": "#000000",
          "emission": "#be164b",
          "alpha": 1,
          "alphaCutoff": 0,
          "emissionIntensity": 10,
          "uvRepeat": [
            1,
            1
          ],
          "parallaxOcclusionScale": 0.02,
          "diffuseMap": "",
          "normalMap": "",
          "parallaxOcclusionMap": "",
          "emissiveMap": "",
          "metalness": 0,
          "roughness": 0.49,
          "metalnessMap": "",
          "roughnessMap": "",
          "type": "pbrMetallicRoughness",
          "targetMeshes": [
            "default_Material0$2"
          ]
        }
      ],
      "takes": [],
      "textureFlipY": false,
      "zUpToYUp": false,
      "shadow": true,
      "environment": "auto",
      "viewControl": {
        "center": [
          -0.14015568792819977,
          -0.374830961227417,
          -1.53309166431427
        ],
        "alpha": 9.14898409130634,
        "beta": 2.389553000618062,
        "distance": 10.238894759232485
      },
      "ground": {
        "show": true
      },
      "mainLight": {
        "shadow": true,
        "shadowQuality": "medium",
        "intensity": 0.8,
        "color": "#fff",
        "alpha": 45,
        "beta": 45,
        "$padAngle": [
          0.25,
          0.5
        ]
      },
      "secondaryLight": {
        "shadow": false,
        "shadowQuality": "medium",
        "intensity": 0,
        "color": "#fff",
        "alpha": 60,
        "beta": -50,
        "$padAngle": [
          -0.2777777777777778,
          0.6666666666666666
        ]
      },
      "tertiaryLight": {
        "shadow": false,
        "shadowQuality": "medium",
        "intensity": 0,
        "color": "#fff",
        "alpha": 89,
        "beta": 0,
        "$padAngle": [
          0,
          0.9888888888888889
        ]
      },
      "ambientLight": {
        "intensity": 0,
        "color": "#fff"
      },
      "ambientCubemapLight": {
        "texture": "./asset/texture/pisa.hdr",
        "$texture": "pisa",
        "$textureOptions": [
          "pisa",
          "Barce_Rooftop_C",
          "Factory_Catwalk",
          "Grand_Canyon_C",
          "Ice_Lake",
          "Hall",
          "Old_Industrial_Hall"
        ],
        "exposure": 3,
        "diffuseIntensity": 0.5,
        "specularIntensity": 0.5,
        "$intensity": 0.5
      },
      "postEffect": {
        "enable": true,
        "bloom": {
          "enable": true,
          "intensity": 0.1
        },
        "depthOfField": {
          "enable": false,
          "focalDistance": 11.322398750055008,
          "focalRange": 1,
          "blurRadius": 5,
          "fstop": 10,
          "quality": "medium",
          "$qualityOptions": [
            "low",
            "medium",
            "high",
            "ultra"
          ]
        },
        "screenSpaceAmbientOcclusion": {
          "enable": true,
          "radius": 1,
          "quality": "medium",
          "intensity": 1.5,
          "$qualityOptions": [
            "low",
            "medium",
            "high",
            "ultra"
          ]
        },
        "screenSpaceReflection": {
          "enable": true,
          "quality": "medium",
          "maxRoughness": 0.3,
          "$qualityOptions": [
            "low",
            "medium",
            "high",
            "ultra"
          ]
        },
        "colorCorrection": {
          "enable": true,
          "exposure": 0,
          "brightness": 0,
          "contrast": 1,
          "saturation": 1,
          "lookupTexture": ""
        },
        "FXAA": {
          "enable": false
        }
      }
    }
  },
  "extensionsUsed": [
    "KHR_materials_pbrSpecularGlossiness"
  ]
}