<?xml version="1.0" encoding="utf-8"?>
<!-- Generator: Adobe Illustrator 16.0.4, SVG Export Plug-In . SVG Version: 6.00 Build 0)  -->
<!DOCTYPE svg PUBLIC "-//W3C//DTD SVG 1.1//EN" "http://www.w3.org/Graphics/SVG/1.1/DTD/svg11.dtd">
<svg version="1.1" id="图层_1" xmlns="http://www.w3.org/2000/svg" xmlns:xlink="http://www.w3.org/1999/xlink" x="0px" y="0px"
	 width="186px" height="49px" viewBox="0 0 186 49" enable-background="new 0 0 186 49" xml:space="preserve">
<path d="M28.404,40.339h-20V8.679h20c2.209,0,4-1.791,4-4s-1.791-4-4-4h-24c-2.209,0-4,1.791-4,4v39c0,0.113,0.024,0.22,0.033,0.33
	c-0.009,0.11-0.033,0.217-0.033,0.33c0,2.209,1.791,4,4,4h24c2.209,0,4-1.791,4-4S30.613,40.339,28.404,40.339z"/>
<path d="M56.697,40.339h-12V4.679c0-2.209-1.791-4-4-4s-4,1.791-4,4v39.101c0,0.096,0.021,0.186,0.028,0.279
	c-0.007,0.095-0.028,0.185-0.028,0.28c0,2.209,1.791,4,4,4h16c2.209,0,4-1.791,4-4S58.906,40.339,56.697,40.339z"/>
<path d="M182.096,40.156h-12V4.861c0-2.209-1.791-4-4-4s-4,1.791-4,4v39.1c0,0.033,0.009,0.064,0.01,0.098
	c-0.001,0.033-0.01,0.064-0.01,0.098c0,2.209,1.791,4,4,4h16c2.209,0,4-1.791,4-4S184.305,40.156,182.096,40.156z"/>
<path d="M157.725,24.598c0-2.209-1.791-4-4-4h-9.023c-2.209,0-4,1.791-4,4s1.791,4,4,4h5.023v11.559h-18.002V8.861h22
	c2.209,0,4-1.791,4-4s-1.791-4-4-4h-26c-2.209,0-4,1.791-4,4v39c0,0.051,0.013,0.098,0.015,0.147
	c-0.002,0.05-0.015,0.097-0.015,0.147c0,2.209,1.791,4,4,4h26h0.001h0.001c2.209,0,4-1.791,4-4v-19.43
	c0-0.022-0.006-0.042-0.007-0.064C157.719,24.64,157.725,24.62,157.725,24.598z"/>
<path fill="#20A5DE" d="M114.89,9.35c-1.189,0-2.35-0.479-3.189-1.319c-0.83-0.83-1.311-1.99-1.311-3.181
	c0-1.18,0.48-2.34,1.311-3.18c0.84-0.84,2-1.32,3.189-1.32c1.18,0,2.34,0.48,3.18,1.32c0.83,0.84,1.32,2,1.32,3.18
	c0,1.181-0.49,2.34-1.32,3.181C117.229,8.87,116.069,9.35,114.89,9.35z"/>
<path d="M111.641,10.95c-1.958-1.018-4.375-0.259-5.396,1.7l-4.335,8.326L92.551,3.003c-1.02-1.96-3.437-2.72-5.395-1.7
	c-1.959,1.02-2.721,3.436-1.701,5.395l12.429,23.87v13.579c0,2.209,1.791,4,4,4s4-1.791,4-4V30.665l7.456-14.32
	C114.361,14.386,113.6,11.97,111.641,10.95z"/>
<path fill="#ED1C5E" d="M89,48.65c-1.18,0-2.34-0.48-3.18-1.32s-1.32-2-1.32-3.18c0-1.19,0.48-2.351,1.32-3.181
	c0.84-0.84,2-1.319,3.18-1.319c1.19,0,2.35,0.479,3.189,1.319c0.83,0.83,1.311,1.99,1.311,3.181c0,1.18-0.48,2.34-1.311,3.18
	C91.35,48.17,90.19,48.65,89,48.65z"/>
<path d="M87.521,32.271L72.562,3.028c-0.035-0.068-0.084-0.124-0.122-0.189c-0.071-0.122-0.145-0.241-0.228-0.354
	c-0.078-0.106-0.162-0.204-0.248-0.3c-0.084-0.093-0.17-0.183-0.262-0.268c-0.099-0.091-0.202-0.175-0.31-0.255
	c-0.1-0.075-0.201-0.145-0.307-0.21c-0.111-0.068-0.224-0.128-0.34-0.185c-0.117-0.057-0.234-0.109-0.356-0.154
	c-0.122-0.045-0.244-0.082-0.369-0.114c-0.123-0.033-0.245-0.062-0.372-0.082c-0.14-0.023-0.281-0.035-0.423-0.043
	c-0.075-0.004-0.146-0.022-0.223-0.022c-0.046,0-0.089,0.012-0.135,0.014c-0.143,0.005-0.284,0.023-0.426,0.043
	c-0.126,0.018-0.251,0.035-0.374,0.064c-0.121,0.029-0.239,0.07-0.358,0.111c-0.137,0.047-0.271,0.095-0.4,0.156
	c-0.042,0.02-0.086,0.028-0.128,0.05c-0.069,0.035-0.125,0.084-0.191,0.123c-0.121,0.071-0.239,0.145-0.352,0.228
	c-0.105,0.078-0.204,0.161-0.3,0.248c-0.094,0.084-0.184,0.17-0.269,0.263c-0.091,0.099-0.174,0.201-0.254,0.308
	c-0.076,0.101-0.146,0.202-0.212,0.31c-0.068,0.11-0.128,0.223-0.184,0.339c-0.057,0.117-0.109,0.234-0.154,0.356
	c-0.045,0.122-0.082,0.245-0.115,0.371c-0.032,0.122-0.061,0.244-0.082,0.37c-0.023,0.142-0.035,0.284-0.043,0.428
	c-0.004,0.074-0.022,0.145-0.022,0.22v39.317c0,2.209,1.791,4,4,4s4-1.791,4-4V21.454l7.397,14.461
	c0.708,1.384,2.11,2.18,3.564,2.18c0.613,0,1.235-0.142,1.818-0.44C87.748,36.648,88.527,34.238,87.521,32.271z"/>
</svg>
